<?xml version="1.0" encoding="utf-8"?>
<!-- Generator: Adobe Illustrator 15.1.0, SVG Export Plug-In . SVG Version: 6.00 Build 0)  -->
<!DOCTYPE svg PUBLIC "-//W3C//DTD SVG 1.1//EN" "http://www.w3.org/Graphics/SVG/1.1/DTD/svg11.dtd">
<svg version="1.1" id="Layer_1" xmlns="http://www.w3.org/2000/svg" xmlns:xlink="http://www.w3.org/1999/xlink" x="0px" y="0px"
	 width="285px" height="126px" viewBox="0 0 285 126" enable-background="new 0 0 285 126" xml:space="preserve">
<path fill-rule="evenodd" clip-rule="evenodd" fill="#EB1E8F" d="M143.271,41.778c-6.124,7.944-14.885,15.42-23.36,21.851
	c-19.727-14.29-13.249-65.09,19.844-56.012c0.21,0.924-1.228,2.476-2.263,3.767c-4.853,6.051-9.983,12.595-14.065,20.094
	c-3.602,6.616-6.54,17.558,6.531,15.323C134.562,46.013,140.302,43.25,143.271,41.778"/>
<path fill-rule="evenodd" clip-rule="evenodd" fill="#CDDC2A" d="M133.474,67.397c-0.293-0.898,1.299-2.563,2.26-3.768
	c3.06-3.815,5.751-6.979,8.542-11.05c3.707-5.417,8.723-11.368,9.545-18.086c1.12-9.149-7.947-8.073-14.318-6.031
	c-3.912,1.26-6.001,2.236-8.79,3.771c5.494-7.063,13.356-13.939,20.848-19.846c8.447,5.778,17.49,12.434,17.579,24.617
	c0.116,15.503-15.38,24.604-26.875,28.384C140.117,66.095,136.573,67.66,133.474,67.397"/>
<path fill="#01324C" d="M56.89,99.478c-0.451,1.725-3.858,6.566-9.851,6.566c-6.198,0-11.165-5.005-11.165-11.204
	c0-5.993,4.639-11.165,11.698-11.165c6.732,0,9.646,4.229,9.646,7.143c0,6.443-7.511,7.223-12.889,6.32
	c1.438,4.106,6.897,4.516,11.904,1.725c0.164-0.123,0.37-0.164,0.534-0.041S57.013,99.109,56.89,99.478 M44.001,93.527
	c3.654,0.328,5.459-1.027,5.459-3.244c0-1.108-0.902-2.051-2.175-1.969c0,0,0,0.041-0.041,0.041h-0.123
	c-0.288,0.041-0.657,0.164-0.985,0.369C44.781,89.545,44.165,91.515,44.001,93.527"/>
<path fill="#01324C" d="M80.699,97.057c0,6.443,2.791,5.049,2.381,6.156c-0.411,1.314-2.627,2.914-4.926,2.914
	c-2.791,0-4.966-1.682-5.541-4.473h-0.165c-1.395,2.586-3.57,4.432-6.361,4.432c-5.172,0-8.045-5.705-8.045-11.205
	c0-5.623,2.873-11.123,8.25-11.123c2.75,0,4.72,1.519,5.992,3.693h0.123c0-2.34,2.053-3.611,4.269-3.693
	c1.56,0.041,4.352,0.82,4.352,3.734C81.028,88.438,80.699,95.373,80.699,97.057 M72.654,94.88c0-3.078-1.067-5.582-3.079-5.582
	c-2.011,0-3.078,2.504-3.078,5.582s1.067,5.541,3.078,5.541C71.587,100.421,72.654,97.958,72.654,94.88"/>
<path fill="#01324C" d="M102.99,88.273c0,3.406-2.339,5.295-5.13,5.295c-0.986,0-1.93-0.576-2.053-0.822
	c-0.246-0.369-0.082-0.657-0.082-1.477c0-1.273-0.246-1.807-0.862-1.807c-1.19,0-1.395,2.094-1.395,4.639
	c0,1.272,0.164,7.758,0.164,8.209c0,2.955-2.75,3.693-4.351,3.734h-0.042c-1.559-0.041-4.309-0.779-4.309-3.734
	c0-0.451,0.288-8.373,0.288-9.482c0-6.526-2.709-5.131-2.34-6.239c0.369-1.312,2.586-2.914,4.884-2.914
	c2.668,0,4.762,1.52,5.418,4.188h0.164c1.149-2.545,3.12-4.188,5.09-4.188C101.02,83.675,102.99,85.318,102.99,88.273"/>
<path fill="#01324C" d="M147.487,103.089c-0.453,1.273-2.67,2.873-4.967,2.873c-3.326,0-6.035-2.379-6.035-6.238v-7.963
	c0-4.106-4.186-2.668-4.227,2.176c0,0,0.124,8.004,0.124,8.373c0,2.954-2.75,3.733-4.311,3.733h-0.041
	c-1.559,0-4.311-0.779-4.311-3.733v-0.492c-7.427,7.757-20.686,3.979-20.727-6.979c0-5.992,4.597-10.877,10.878-11.164
	c4.596,0,9.193,1.848,9.193,5.746c0.041,1.971-1.558,4.105-3.98,4.105c-1.356,0-2.709-0.451-2.873-0.699
	c-0.205-0.369-0.041-0.861-0.041-1.681c0-1.684-0.823-2.832-1.971-2.832c-2.217,0-3.283,3.488-2.996,6.525
	c0.615,7.143,8.578,6.404,12.765,2.586c-0.041-2.135-0.041-4.557-0.041-6.977c0-2.711-0.207-11.412-0.207-11.863
	c0-2.955,2.752-3.734,4.311-3.734h0.041c1.561,0,4.311,0.779,4.311,3.734c0,0.369-0.124,9.647-0.124,9.647
	c1.805-3.368,4.721-4.598,6.854-4.598c3.037,0,5.623,2.668,5.623,6.773v6.403C144.735,103.335,147.856,101.941,147.487,103.089"/>
<path fill="#01324C" d="M169.452,97.057c0,6.443,2.791,5.049,2.381,6.156c-0.41,1.314-2.627,2.914-4.926,2.914
	c-2.791,0-4.967-1.682-5.541-4.473h-0.164c-1.397,2.586-3.57,4.432-6.363,4.432c-5.172,0-8.045-5.705-8.045-11.205
	c0-5.623,2.873-11.123,8.252-11.123c2.75,0,4.719,1.519,5.992,3.693h0.123c0-2.34,2.053-3.611,4.267-3.693
	c1.562,0.041,4.353,0.82,4.353,3.734C169.78,88.438,169.452,95.373,169.452,97.057 M161.407,94.88c0-3.078-1.066-5.582-3.078-5.582
	s-3.078,2.504-3.078,5.582s1.066,5.541,3.078,5.541S161.407,97.958,161.407,94.88"/>
<path fill="#01324C" d="M195.562,94.839c0,5.623-2.832,11.123-8.209,11.123c-2.709,0-4.68-1.477-5.953-3.652h-0.164v0.123v0.205
	c-0.246,2.585-2.75,3.283-4.227,3.324h-0.041c-1.52-0.041-4.27-0.779-4.229-3.734c0.164-7.963,0.041-21.918,0.041-23.848
	c0-2.791,2.709-3.488,4.27-3.529h0.041c1.518,0.041,4.309,0.738,4.268,3.529c-0.123,3.734,0,0.041-0.123,9.357h0.164
	c1.355-2.378,3.49-4.103,6.158-4.103C192.729,83.634,195.562,89.339,195.562,94.839 M187.147,94.839c0-3.078-1.068-5.541-3.08-5.541
	c-2.01,0-3.078,2.463-3.078,5.541s1.068,5.582,3.078,5.582C186.079,100.421,187.147,97.917,187.147,94.839"/>
<path fill="#01324C" d="M206.646,102.269c0,2.955-2.791,3.693-4.35,3.734h-0.041c-1.561-0.041-4.311-0.779-4.311-3.734
	c0-0.451,0.287-8.414,0.287-9.523c0-6.526-2.709-5.131-2.34-6.239c0.369-1.312,2.586-2.914,4.885-2.914
	c3.324,0,5.705,2.381,5.705,6.238C206.481,91.392,206.646,101.818,206.646,102.269"/>
<path fill="#EB1E8F" d="M196.63,78.667c0-2.094,2.135-3.816,4.762-3.816s4.803,1.722,4.803,3.816c0,2.135-2.176,3.816-4.803,3.816
	S196.63,80.803,196.63,78.667"/>
<path fill="#01324C" d="M220.151,103.171c-0.451,1.314-2.996,2.914-5.295,2.914c-3.324,0-5.746-2.378-5.746-6.237v-9.524
	c0-2.75-0.123-11.369-0.123-11.697c0-2.955,2.832-3.693,4.432-3.734h0.041c1.602,0.041,4.393,0.779,4.393,3.734
	c0,0.451-0.123,9.029-0.123,11.41v6.897C217.729,103.458,220.521,102.064,220.151,103.171"/>
<path fill="#01324C" d="M230.62,102.269c0,2.955-2.791,3.693-4.353,3.734h-0.04c-1.559-0.041-4.311-0.779-4.311-3.734
	c0-0.451,0.289-8.414,0.289-9.523c0-6.526-2.709-5.131-2.34-6.239c0.369-1.312,2.586-2.914,4.885-2.914
	c3.324,0,5.705,2.381,5.705,6.238C230.456,91.392,230.62,101.818,230.62,102.269"/>
<path fill="#CDDC2A" d="M220.604,78.667c0-2.094,2.135-3.816,4.762-3.816s4.803,1.722,4.803,3.816c0,2.135-2.176,3.816-4.803,3.816
	S220.604,80.803,220.604,78.667"/>
<path fill="#01324C" d="M268.138,102.597c0.246,7.101-3.695,13.191-11.289,13.191c-5.992,0-8.742-4.023-9.234-5.582
	c-0.656-2.012-0.247-2.381,0.205-2.299c0.984,0.164,2.176,3.201,6.773,3.201c3.283,0,5.172-3.627,5.295-6.089v-4.104
	c-1.684,3.53-4.475,4.76-6.65,4.76c-3.038,0-5.623-2.668-5.623-6.771v-6.405c0-3.98-1.725-4.431-5.582-4.103v8.783
	c0,0.492,0.041,0.902,0.082,1.314c0.533,3.325,2.503,2.586,4.104,2.586c0.74,0,0.822,0.534,0.535,1.067
	c-1.109,2.217-3.613,3.734-6.568,3.734c-1.312-0.041-2.586-0.328-3.652-0.943c-1.684-1.026-2.791-2.914-2.791-5.5V88.396h-1.109
	c-1.312,0-1.6-1.233-1.6-1.971c0-0.697,0.287-1.971,1.6-1.971c0.082,0,0.574,0.041,1.026,0.041
	c-0.041-0.943-0.081-1.845-0.081-2.052c0-2.914,2.75-3.94,4.268-4.514h0.041c1.561-0.533,4.27-0.74,4.27,2.217
	c0,0.451-0.123,4.308-0.123,4.39l7.594-0.041c3.323,0,6.32,2.299,6.32,6.159l-0.082,6.894c0,4.106,3.859,2.668,3.9-2.176
	c0,0-0.166-7.263-0.166-7.716c0-2.955,2.752-3.735,4.31-3.735h0.041c1.562,0,4.312,0.78,4.312,3.735
	C268.261,88.109,268.138,99.847,268.138,102.597"/>
<polygon fill="#01324C" points="272.543,84.65 272.543,80.23 270.892,80.23 270.892,79.64 274.864,79.64 274.864,80.23 
	273.206,80.23 273.206,84.65 "/>
<path fill="#01324C" d="M275.698,84.65v-5.01h0.998l1.186,3.547c0.109,0.33,0.189,0.578,0.24,0.742
	c0.056-0.181,0.146-0.449,0.265-0.802l1.201-3.487h0.892v5.01h-0.639v-4.193l-1.456,4.193h-0.599l-1.449-4.266v4.266H275.698z"/>
<path fill="#01324C" d="M34.221,97.63c0,6.813-7.552,8.988-13.545,8.988c-4.638,0-11.739-1.435-12.149-7.017
	c-0.123-2.34,1.723-4.68,4.514-4.68c1.724,0,3.777,0.738,4.064,1.148c0.205,0.288-0.123,1.11-0.123,2.135
	c0.082,5.336,7.429,5.172,7.552,0.615c0-2.914-4.105-3.939-7.921-5.623c-3.408-1.517-7.594-3.037-7.84-8.045
	c-0.287-5.746,6.115-9.605,11.821-9.728c6.526-0.164,11.985,2.299,11.985,7.225c0.041,2.75-1.395,4.679-4.679,4.679
	c-1.847,0-3.283-0.615-3.489-0.986c-0.123-0.246,0.123-1.559,0.164-2.668c0.247-4.432-6.28-4.637-6.608-0.574
	c0,2.996,3.571,4.802,7.224,5.912C29.378,90.282,34.221,92.582,34.221,97.63"/>
<path fill="#01324C" d="M117.145,111.28h2.158c0.522,0,1.019,0.051,1.489,0.152c0.471,0.102,0.881,0.266,1.231,0.492
	c0.351,0.227,0.629,0.521,0.835,0.883c0.206,0.363,0.309,0.805,0.309,1.32c0,0.459-0.1,0.863-0.299,1.213
	c-0.2,0.35-0.47,0.643-0.807,0.879c-0.338,0.238-0.729,0.418-1.171,0.541c-0.444,0.123-0.908,0.184-1.394,0.184h-2.351V111.28z
	 M118.583,115.792h0.747c0.332,0,0.642-0.029,0.928-0.088c0.285-0.058,0.533-0.156,0.742-0.291c0.209-0.137,0.373-0.314,0.493-0.537
	c0.12-0.221,0.18-0.492,0.18-0.811c0-0.277-0.06-0.52-0.18-0.725c-0.12-0.205-0.281-0.375-0.484-0.508
	c-0.202-0.133-0.441-0.234-0.715-0.301c-0.273-0.066-0.561-0.1-0.862-0.1h-0.849V115.792z"/>
<rect x="125.971" y="111.28" fill="#01324C" width="1.439" height="5.664"/>
<path fill="#01324C" d="M136.477,116.544c-0.424,0.193-0.867,0.332-1.328,0.416c-0.461,0.086-0.932,0.129-1.411,0.129
	c-0.511,0-0.981-0.07-1.411-0.209c-0.431-0.139-0.803-0.336-1.117-0.596c-0.313-0.258-0.557-0.572-0.733-0.939
	c-0.175-0.367-0.263-0.78-0.263-1.232c0-0.453,0.088-0.863,0.263-1.232c0.176-0.367,0.42-0.68,0.733-0.94
	c0.314-0.257,0.686-0.456,1.117-0.595c0.43-0.139,0.9-0.209,1.411-0.209c0.522,0,1.004,0.054,1.443,0.164
	c0.44,0.109,0.825,0.299,1.157,0.564l-1.013,0.961c-0.198-0.177-0.419-0.311-0.664-0.4c-0.247-0.092-0.554-0.137-0.923-0.137
	c-0.308,0-0.586,0.045-0.835,0.137c-0.249,0.09-0.463,0.217-0.641,0.379c-0.179,0.164-0.315,0.357-0.41,0.58
	c-0.096,0.225-0.144,0.467-0.144,0.729c0,0.268,0.048,0.512,0.144,0.732c0.095,0.22,0.231,0.414,0.41,0.576
	c0.178,0.162,0.392,0.289,0.641,0.379c0.249,0.092,0.527,0.137,0.835,0.137c0.313,0,0.584-0.031,0.811-0.092
	c0.228-0.061,0.409-0.125,0.544-0.188v-0.92h-1.171v-1.152h2.555V116.544z"/>
<rect x="139.566" y="111.28" fill="#01324C" width="1.439" height="5.664"/>
<polygon fill="#01324C" points="145.424,112.384 143.561,112.384 143.561,111.28 148.726,111.28 148.726,112.384 146.861,112.384 
	146.861,116.944 145.424,116.944 "/>
<path fill="#01324C" d="M152.6,111.28h1.189l2.841,5.664h-1.624l-0.562-1.199h-2.537l-0.544,1.199h-1.586L152.6,111.28z
	 M153.152,112.929l-0.793,1.76h1.596L153.152,112.929z"/>
<polygon fill="#01324C" points="159.186,111.28 160.623,111.28 160.623,115.792 163.289,115.792 163.289,116.944 159.186,116.944 
	"/>
<path fill="#01324C" d="M170.503,111.28h2.527c0.332,0,0.647,0.027,0.945,0.084s0.56,0.15,0.784,0.28s0.402,0.308,0.535,0.528
	c0.132,0.221,0.198,0.498,0.198,0.828c0,0.4-0.12,0.74-0.36,1.019c-0.239,0.28-0.59,0.458-1.051,0.532l1.66,2.393h-1.726
	l-1.364-2.264h-0.711v2.264h-1.438V111.28z M171.941,113.624h0.849c0.13,0,0.267-0.004,0.411-0.012
	c0.145-0.009,0.274-0.031,0.392-0.072c0.117-0.039,0.214-0.102,0.291-0.188c0.076-0.086,0.115-0.205,0.115-0.359
	c0-0.145-0.034-0.26-0.102-0.344c-0.068-0.086-0.154-0.152-0.259-0.197s-0.225-0.076-0.359-0.092
	c-0.136-0.016-0.268-0.023-0.396-0.023h-0.941V113.624z"/>
<polygon fill="#01324C" points="178.38,111.28 182.816,111.28 182.816,112.433 179.818,112.433 179.818,113.489 182.651,113.489 
	182.651,114.64 179.818,114.64 179.818,115.792 182.982,115.792 182.982,116.944 178.38,116.944 "/>
<path fill="#01324C" d="M190.25,112.753c-0.142-0.15-0.315-0.264-0.521-0.344c-0.207-0.08-0.444-0.121-0.715-0.121
	s-0.521,0.045-0.751,0.137c-0.231,0.09-0.431,0.217-0.6,0.379c-0.17,0.164-0.302,0.357-0.396,0.58
	c-0.096,0.224-0.144,0.467-0.144,0.729c0,0.268,0.048,0.512,0.144,0.732c0.095,0.222,0.226,0.414,0.392,0.576
	s0.361,0.289,0.586,0.379c0.224,0.092,0.466,0.137,0.724,0.137c0.295,0,0.557-0.053,0.784-0.16c0.227-0.105,0.415-0.256,0.562-0.447
	l1.199,0.775c-0.276,0.337-0.627,0.584-1.052,0.744c-0.424,0.16-0.86,0.24-1.31,0.24c-0.511,0-0.98-0.07-1.411-0.209
	s-0.804-0.336-1.116-0.596c-0.313-0.258-0.558-0.572-0.733-0.939c-0.175-0.367-0.263-0.778-0.263-1.232
	c0-0.453,0.088-0.863,0.263-1.232c0.176-0.367,0.42-0.68,0.733-0.94c0.312-0.257,0.686-0.457,1.116-0.595
	c0.431-0.139,0.9-0.209,1.411-0.209c0.185,0,0.377,0.016,0.576,0.045c0.2,0.029,0.396,0.076,0.591,0.141
	c0.193,0.062,0.38,0.148,0.558,0.256c0.179,0.105,0.338,0.236,0.479,0.391L190.25,112.753z"/>
<path fill="#01324C" d="M194.143,111.28h2.527c0.332,0,0.647,0.027,0.945,0.084s0.56,0.15,0.784,0.28s0.402,0.308,0.536,0.528
	c0.131,0.221,0.197,0.498,0.197,0.828c0,0.4-0.12,0.74-0.36,1.019c-0.239,0.28-0.59,0.458-1.051,0.532l1.66,2.393h-1.726
	l-1.364-2.264h-0.711v2.264h-1.438V111.28z M195.581,113.624h0.849c0.131,0,0.267-0.004,0.411-0.012
	c0.145-0.009,0.274-0.031,0.392-0.072c0.117-0.039,0.214-0.102,0.291-0.188c0.076-0.086,0.115-0.205,0.115-0.359
	c0-0.145-0.034-0.26-0.102-0.344c-0.068-0.086-0.154-0.152-0.259-0.197s-0.225-0.076-0.359-0.092
	c-0.136-0.016-0.268-0.023-0.396-0.023h-0.941V113.624z"/>
<path fill="#01324C" d="M207.471,114.761c0,0.336-0.059,0.645-0.176,0.928s-0.29,0.527-0.521,0.736
	c-0.23,0.207-0.518,0.371-0.862,0.488c-0.344,0.117-0.74,0.176-1.189,0.176c-0.455,0-0.854-0.059-1.199-0.176
	s-0.632-0.281-0.862-0.488c-0.23-0.209-0.404-0.453-0.521-0.736c-0.116-0.283-0.175-0.592-0.175-0.928v-3.48h1.438v3.432
	c0,0.176,0.032,0.34,0.098,0.488c0.064,0.15,0.155,0.279,0.271,0.389c0.117,0.11,0.257,0.195,0.42,0.256s0.34,0.092,0.53,0.092
	s0.366-0.031,0.525-0.092c0.16-0.061,0.299-0.146,0.415-0.256c0.117-0.109,0.208-0.238,0.272-0.389
	c0.064-0.148,0.097-0.312,0.097-0.488v-3.432h1.439V114.761z"/>
<rect x="210.625" y="111.28" fill="#01324C" width="1.439" height="5.664"/>
<polygon fill="#01324C" points="216.481,112.384 214.618,112.384 214.618,111.28 219.783,111.28 219.783,112.384 217.919,112.384 
	217.919,116.944 216.481,116.944 "/>
<polygon fill="#01324C" points="222.412,111.28 226.849,111.28 226.849,112.433 223.85,112.433 223.85,113.489 226.684,113.489 
	226.684,114.64 223.85,114.64 223.85,115.792 227.015,115.792 227.015,116.944 222.412,116.944 "/>
<path fill="#01324C" d="M230.012,111.28h2.527c0.332,0,0.647,0.027,0.945,0.084s0.56,0.15,0.784,0.28s0.402,0.308,0.535,0.528
	c0.132,0.221,0.198,0.498,0.198,0.828c0,0.4-0.12,0.74-0.36,1.019c-0.239,0.28-0.59,0.458-1.051,0.532l1.66,2.393h-1.726
	l-1.364-2.264h-0.711v2.264h-1.438V111.28z M231.45,113.624h0.849c0.13,0,0.267-0.004,0.411-0.012
	c0.145-0.009,0.274-0.031,0.392-0.072c0.117-0.039,0.214-0.102,0.291-0.188c0.076-0.086,0.115-0.205,0.115-0.359
	c0-0.145-0.034-0.26-0.102-0.344c-0.068-0.086-0.154-0.152-0.259-0.197s-0.225-0.076-0.359-0.092
	c-0.136-0.016-0.268-0.023-0.396-0.023h-0.941V113.624z"/>
<path fill="#01324C" d="M241.062,112.665c-0.117-0.129-0.275-0.223-0.476-0.285c-0.199-0.061-0.389-0.092-0.567-0.092
	c-0.104,0-0.212,0.012-0.322,0.033s-0.216,0.055-0.313,0.1c-0.099,0.045-0.179,0.105-0.24,0.18s-0.092,0.166-0.092,0.271
	c0,0.172,0.072,0.303,0.221,0.393s0.334,0.168,0.559,0.232c0.225,0.063,0.466,0.127,0.724,0.191c0.259,0.064,0.5,0.154,0.725,0.271
	c0.224,0.117,0.41,0.275,0.558,0.473s0.222,0.461,0.222,0.791c0,0.316-0.068,0.59-0.203,0.824c-0.136,0.236-0.318,0.431-0.549,0.584
	c-0.23,0.156-0.498,0.27-0.803,0.347c-0.304,0.073-0.625,0.11-0.964,0.11c-0.424,0-0.817-0.057-1.181-0.168
	c-0.362-0.113-0.7-0.293-1.015-0.545l1.024-0.975c0.147,0.17,0.333,0.303,0.558,0.395c0.225,0.094,0.457,0.14,0.696,0.14
	c0.117,0,0.235-0.011,0.355-0.034c0.12-0.025,0.228-0.061,0.323-0.109c0.095-0.047,0.172-0.109,0.23-0.184
	c0.058-0.074,0.087-0.162,0.087-0.264c0-0.17-0.075-0.305-0.226-0.404c-0.15-0.098-0.34-0.182-0.567-0.252
	c-0.228-0.068-0.474-0.139-0.737-0.207c-0.265-0.07-0.511-0.164-0.738-0.281s-0.417-0.271-0.567-0.463
	c-0.15-0.193-0.226-0.445-0.226-0.759c0-0.306,0.068-0.573,0.207-0.802s0.323-0.422,0.554-0.576s0.496-0.271,0.798-0.348
	c0.3-0.078,0.611-0.117,0.932-0.117c0.368,0,0.726,0.047,1.069,0.137c0.345,0.092,0.655,0.242,0.932,0.457L241.062,112.665z"/>
</svg>
